# xmcd CD database file
#
# Track frame offsets:
#	150
#	18496
#	35373
#	51818
#	66981
#	84960
#	101118
#	118174
#	141027
#	160231
#	179556
#	194519
#	211943
#
# Disc length: 3023 seconds
#
# Revision: 1
# Processed by: cddbd v1.5.2PL0 Copyright (c) Steve Scherf et al.
# Submitted via: CDex 1.70beta2
#
DISCID=b90bcd0d
DTITLE=Eric Lee Beddingfield - Eric Lee Beddingfield
DYEAR=2005
DGENRE=Country
TTITLE0=Right Hand Man
TTITLE1=Small Town America
TTITLE2=Full Throttle
TTITLE3=Never Felt Pain
TTITLE4=Trouble With A Woman
TTITLE5=Kill The Mullet
TTITLE6=Keep The Change
TTITLE7=That's How I'll Stay
TTITLE8=Nowhere USA
TTITLE9=Chase The Devil
TTITLE10=Only Thing Going Down
TTITLE11=Something You Make
TTITLE12=Train, Train
EXTD=YEAR: 2005
EXTT0=
EXTT1=
EXTT2=
EXTT3=
EXTT4=
EXTT5=
EXTT6=
EXTT7=
EXTT8=
EXTT9=
EXTT10=
EXTT11=
EXTT12=
PLAYORDER=
